<svg xmlns="http://www.w3.org/2000/svg" viewBox="0 0 109.82 125.14"><defs><style>.cls-1{fill:#fff;}</style></defs><g id="Capa_2" data-name="Capa 2"><g id="Capa_7" data-name="Capa 7"><path class="cls-1" d="M109.76,41.69c-.65,1.09-1.2,2-1.74,2.93l-.16-.08c.17-.74.34-1.49.55-2.43l-1,.86c-.2-3.13-.35-6.31-.62-9.48-.35-4-.9-8-1.17-12-.26-3.7-.4-7.36-1.83-10.88-1-2.51-2.57-4.92-2.37-7.82,0-.23-.21-.47-.33-.71a3.31,3.31,0,0,0-.21,1.33c0,.39,0,.77,0,1.16a6.67,6.67,0,0,0-2.31-4c.13.78.37,1.52.55,2.27A11.5,11.5,0,0,1,99.51,5a13.88,13.88,0,0,1-.2,2.22l-.19,0c-.17-.83-.34-1.66-.53-2.62-.19.2-.25.24-.26.28a2.22,2.22,0,0,0,0,.37,13.85,13.85,0,0,1-2.57,8.21c-2.44,3.28-5.19,6.32-7.81,9.46l-.19-.12V21.16l-.19,0-.77,2.3c-.21-1.16-.41-2.24-.61-3.32l-.43,0c-.06,6.88-3.19,12.36-7.66,17.4,0-.49,0-.84,0-1.19s-.08-.71-.13-1.05C77.3,36.47,76.69,37.65,76,39c-.46-1.09-.81-1.94-1.16-2.79l-.28.07a8.85,8.85,0,0,1-1.49,6.26c-1.86-.48-3.69-.9-5.49-1.42a46.14,46.14,0,0,0-19.09-1.39,62.27,62.27,0,0,0-12.2,2.83c-.4.14-.7.2-1-.25C33.23,39.17,31,36.14,29,33c-2.15-3.35-3.82-6.89-2.82-11.1l-.3-.06-.1.28c-1,4.75-2.25,9.64-3.65,14C17.29,51.08,10.31,59.42,10,60a139.88,139.88,0,0,0,4.5-28.39c.3-5.18.38-10.83.35-16.31h0c-2.13-3.44-4.09-7-4.64-11.13-.18-1.34-.43-2.7.38-4,0,0,0,0-.11-.16A4.85,4.85,0,0,0,8.27,2.85c.05-.65.09-1.09.13-1.52a4.46,4.46,0,0,0-.79,4l-.25,0C7.19,4.54,7,3.72,6.83,2.89a4.28,4.28,0,0,0-.47,1.68A10.39,10.39,0,0,1,6.1,7.34a25.57,25.57,0,0,0-1.78,9.78A77.17,77.17,0,0,1,3.41,30c-.68,4.15-1.18,8.34-1.66,12.52a38,38,0,0,0,0,4.27l-.12,0L.76,44.34l-.27,0L.76,47c0,.18.11.48.07.49C0,47.9.35,48.62.48,49.13a16.85,16.85,0,0,0,1,2.61C2,53,2.71,54.19,3.12,55.47q1.62,5,3,10.09C6.83,68,7,70.32,5,72.37l1.67-.7.14.21-3,2.1.12.34,3.66-.55a17.22,17.22,0,0,1-2.31,7.6A6.78,6.78,0,0,1,2.5,84.25a6.71,6.71,0,0,1-1,.36C1,84.75.52,84.86,0,85a2.61,2.61,0,0,0,1.6.21c.8-.12,1.56-.52,2.34-.65l.13.25L1.73,86.12l-.42.23a5.09,5.09,0,0,0,.5.3,4.14,4.14,0,0,0,3.24.23,4.32,4.32,0,0,1-3,1.7c-.62.11-1.29.16-2,.25a7.4,7.4,0,0,0,2.1.89,24,24,0,0,0,4.23.44V96.6l2.13-3.66a.77.77,0,0,1,.3.48,29.52,29.52,0,0,0,1.37,5.52l.06.13c3-12.18,5.69-24.42,5.62-37.19,6.76,19.25,3.08,39.72,6.66,58.7l9.8-39.51a2.75,2.75,0,0,1-2.19-1.93,18.23,18.23,0,0,1-.6-3.34c.81-.3,1.59-.68,2.41-.9a18.35,18.35,0,0,1,2-.33l2.91-11.73.63,0c.15,2.24.41,4.49.43,6.73,0,1.83,0,3.65,0,5.48a10.36,10.36,0,0,1,3.26,1.48.79.79,0,0,1,.19.68,5.22,5.22,0,0,1-2,3.27,4.52,4.52,0,0,1-1.46.61c0,7.61,0,15.21.2,22.82a56.15,56.15,0,0,0,4.7,21.27,99,99,0,0,1,7.17-32.09,4,4,0,0,1-1.29-.94,5,5,0,0,1-1.19-3.7,1.08,1.08,0,0,1,.54-.78,12.08,12.08,0,0,1,11.09.56,1.1,1.1,0,0,1,.4.91,7.41,7.41,0,0,1-.7,1.87,3.82,3.82,0,0,1-3.64,2.26c-.78,0-1.57,0-2.36,0v.11h-.28c.88,6,1.76,12,2.63,18h1.38q2.79-8.82,5.59-17.63l.93-.17C64.6,102,66,110.43,67.48,118.94c4-12.09,5.45-24.48,5.76-37l-.67,0a4.13,4.13,0,0,1-4-2.46,6.06,6.06,0,0,1,.24-5.91c.36-.63,1.42-.94,2.23-1.19a12.4,12.4,0,0,1,2.22-.48c.33,0,.66-.06,1-.07a13,13,0,0,1,3.59.38,2.11,2.11,0,0,1,.8.38,6.62,6.62,0,0,1,1.46,7.18,2.19,2.19,0,0,1-1.6,1.33,8.46,8.46,0,0,0-1,.22A135.3,135.3,0,0,1,82.71,119,473.08,473.08,0,0,1,92.49,53.5c5.39,16.53,4.19,33.84,6.27,50.76a15.66,15.66,0,0,0,2.44-5.5c.25-1.17.36-2.36.53-3.54l.18-.09.3.55q1-5.88,2.57-11.63a3.28,3.28,0,0,1-.61-1.92,10.08,10.08,0,0,0,.94.71,4.77,4.77,0,0,0,3,.93,38.06,38.06,0,0,1-2.36-3.2l-.09-.16c-1.19-2.15-2.27-4.36-3.26-6.6a8.24,8.24,0,0,1-.89-3.48c.15-3.7,1.18-7.11,4.19-9.61a1.54,1.54,0,0,0,.23-.32,1.28,1.28,0,0,1-.11-.2l-2.72,1c.92-1.47,2.64-1.76,3.91-2.67,0-.09,0-.17-.07-.26l-3.22.48c.28-.79.57-1.6.84-2.43a43.5,43.5,0,0,1,3.77-9.13,15.37,15.37,0,0,0,1.38-3.44A7.51,7.51,0,0,0,109.76,41.69Zm-88,13.89c.27,1.32.52,2.56.78,3.88l-3.62-.67Zm-2.68,15c1.29-2.44,4.17-2.51,6.22-.11C23.73,71.94,21.29,72,19.05,70.58Zm10.56,10L24.7,78.85l0-.28,3.81-2.52a18.73,18.73,0,0,0,.31,2.32A20.68,20.68,0,0,0,29.61,80.56Zm1.2-20.77c-1.36,0-2.72.18-4.08.17a3.54,3.54,0,0,1-3.65-3.84,2.37,2.37,0,0,1,1.5-2.51c1-.39,1.92-.83,3-1.32a11,11,0,0,0,1.69,7,10.76,10.76,0,0,0,.2-7.21,10,10,0,0,1,5.19.87c.16.07.26.39.31.61C35.8,56.79,33.56,59.82,30.81,59.79Zm7.59-8.68a.78.78,0,0,1,1,.85c0,.36-.53.66-1,1.2-.44-.53-1-.89-.93-1.19A1.39,1.39,0,0,1,38.4,51.11Zm1.66,5.76L35.4,58.76a7.47,7.47,0,0,0,.51-5.24l.19-.16,4,3.1Zm45.69,1.79-3.7.64,1.81-3ZM44.87,64.55c.33,1.22.63,2.29,1,3.45l-3.33-.55-.12-.35ZM41.74,78.89c.21-.49.34-1,.57-1.72l2.31,2.09-3.69,1.23C41.26,79.86,41.54,79.39,41.74,78.89Zm1,12.35L42.69,91l3.66-2.59c.43,1.51.82,2.9,1.23,4.38ZM46.7,67a4.55,4.55,0,0,1-.72-1.9,1.43,1.43,0,0,1,1.12-1.72l3.33-.79s0,.1,0,.15c.36,0,.72,0,1.08.07,1.35.19,1.54.4,1.6,1.77a3,3,0,0,1-2.65,3.28C49.12,68.05,47.66,68.38,46.7,67ZM51,68.82l-.06-.21,3.93-1.14.06.23Zm2.75-1.62c.1-1.28.2-2.53.31-4L58.19,65c0,.09,0,.19,0,.28Zm.94-17.9a3.23,3.23,0,0,1,5.37.19A4.7,4.7,0,0,1,54.66,49.3Zm4.72,43.05c.41-1.11.8-2.16,1.24-3.33L63,91Zm9-7.79a5,5,0,0,1-1,1.19c-.82-.27-1.38-.48-1.39-1.19s.53-1,1.15-1S68.53,84.08,68.35,84.56Zm0-3.26-5.48-2.24a13.25,13.25,0,0,1,4.92-5.25A7.42,7.42,0,0,0,68.37,81.3ZM65.84,55.16l4.41-2c0,.88-.06,1.59,0,2.29s.27,1.41.45,2.3ZM71,63.47l-.65-.84c.25-.17.49-.45.74-.46s.41.32.61.49Zm6-4.13c-1-.07-2-.38-2.94-.53a3.1,3.1,0,0,1-2.72-3.08c-.28-3.18-.28-3,2.54-3.23l1-.07a11.86,11.86,0,0,1,7.72,2.72c.44.34.6.69.28,1.14a22.28,22.28,0,0,1-2,2.55C79.74,60,78.29,59.43,77,59.34Zm4.16,20.78a7.23,7.23,0,0,0-1-7.12,2.11,2.11,0,0,1,.19-.23l7,3.65A15.57,15.57,0,0,1,81.13,80.12Z"/><path class="cls-1" d="M74.39,80.84a5.41,5.41,0,0,1,0-7.94A5.73,5.73,0,0,1,74.39,80.84Z"/><path class="cls-1" d="M54,86.94a4.32,4.32,0,0,1,0,6A4,4,0,0,1,54,86.94Z"/><path class="cls-1" d="M77.09,52.85A4.46,4.46,0,0,1,76,59,4.16,4.16,0,0,1,77.09,52.85Z"/><path class="cls-1" d="M50.89,64.92a1.43,1.43,0,0,1-1.22,1.54c-.77,0-1.7-1.16-1.7-2.09a1.16,1.16,0,0,1,1.32-1.17A1.63,1.63,0,0,1,50.89,64.92Z"/></g></g></svg>