<svg xmlns="http://www.w3.org/2000/svg" viewBox="0 0 210.92 313.29"><defs><style>.cls-1{fill:#fff;}</style></defs><g id="Capa_2" data-name="Capa 2"><g id="Capa_1-2" data-name="Capa 1"><path class="cls-1" d="M77.14,169l-.08.06h.1S77.14,169,77.14,169Zm31.45,82.23-.2.37.23,0Z"/><path class="cls-1" d="M190.32,32.45C175.88,18.9,165.68,12.18,151.74,8.19a232.48,232.48,0,0,0-36.18-6.83C96.9-.88,78-1.16,60.56,7c-12.73,5.93-24.4,7-36.14-1.45a7.29,7.29,0,0,0-1.81-.84A46.66,46.66,0,0,0,0,2.07c3.88,3,6.31,6.24,9.35,7,6.82,1.67,13,12,9.63,18.39-1.91,3.63-.62,4.43,2.51,5.55l.08,0a158.54,158.54,0,0,1,24-16.6c22.72-12.92,49.78-1.38,50.88-.9-1-.15-27.21-3.88-48.2,8.65C35.72,31.67,28.59,40,24.75,46.12c-.68,1.08-1.26,2.1-1.75,3a20.85,20.85,0,0,0-2.22,5.54l-1.52-2.06A12.06,12.06,0,0,1,21,57.74c.52,36.12.86,72.25,1.33,108.38.46,35.63,1,71.25,1.45,106.88a11.5,11.5,0,0,1-1.83,5.31c-1.69,3-.88,8,2.11,8.8,4.35,1.15,7.84,2.43,7,8-.07.48,1.39,1.15,2.09,1.79,1.7,1.57,3.69,2.95,5,4.8,5.18,7.25,13.28,9.79,21,11.17,6.52,1.17,13.73-.27,20.4-1.68,4.37-.92,8.12-4.59,12.49-5.69,5.25-1.33,6.91-5.64,9.74-9.05a29.66,29.66,0,0,0,3.78-5.38c1.93-3.72,4.82-7.55,4.91-11.4.06-2.7-.53-4.64,1.86-6.5A4.42,4.42,0,0,0,114,270c-.24-3.47-1-6.89-1.36-10.36a12.34,12.34,0,0,1,.66-4.21c.45-1.68,1.77-3.4,1.56-4.95-.42-3.24.45-7.07-3.25-9.36-.57-.35-.61-2.32-.24-3.3,2-5.41.76-10-2.79-14.33a5.11,5.11,0,0,1-1.29-3.65c1.44-6.67-3.32-9.46-7.49-12.74-1-.78-2.36-2.16-2.22-3.05.93-6-4.07-8.47-6.82-12.28-.74-1-2.39-2.2-2.2-2.95,1.41-5.48-3.06-8.72-4.56-13.06-.71-2-1.13-4.17-1.94-7.26l-4.9.56c.64,2.28,2.36,5,1.66,6.75-2.49,6.17,2.85,9.09,4.66,13.44,3,7.21,5.7,14.56,12.37,19.41-.83,5.89,4.47,8.33,6.94,12.36a12.4,12.4,0,0,1,1.54,3.68c1,4.48,1.89,9,2.8,13.49a40.61,40.61,0,0,1,.72,4.23c.27,2.94.51,5.88.74,8.82,1.15-2.21,2.09-4,3-5.78l1,.23c.17,2,.34,4,.56,6.48l-4.6-.53c.11,1.39.21,2.78.32,4.17.1,1.22.63,2.9,0,3.6-3.53,4.19-2,8.89-1.86,13.5,0,1.3,0,3.1-.72,3.84-3.69,3.54-5.67,7.58-5.22,12.8.06.72-.93,2.18-1.52,2.23-6,.48-7.74,5.74-11,9.33-.84.93-2.42,1.29-3.72,1.7C81,304,77.08,305.1,73.15,306.23a9.07,9.07,0,0,1-3.31.7c-9-1.17-17.82-1.25-25.71-8.08-4-3.47-5.18-5.72-4.56-10.2,1.17-.43,2.25-.8,3.31-1.24,5.28-2.23,5.83-4.53,2.73-9.2a10,10,0,0,1-1.15-5.16q-1.2-106.2-2.28-212.42c0-3.39-.78-6.93,2.48-9.68.76-.65.56-2.85.27-4.22-1.17-5.58.71-8.07,5.92-6.6,4,1.13,6.22-.36,8.65-3,6.36-6.83,14-11.19,23.55-11.65,3.8-.18,7.61,0,11.57,0-.13-1,23.43-6.21,60,7.22S202.77,68.79,208.05,75C207.12,69.94,204.75,46,190.32,32.45ZM24.91,53.84H25q.87,49,1.75,98h-1.8ZM28.4,156.11c1.37.1,2.65,1.33,4,2.06l-.76,1.5-5.69-.53-1.1-1.22C26,157.27,27.26,156,28.4,156.11ZM24.05,282.86c4,1.05,9-1.86,12.62,4.17C31.56,286.05,26.44,289.17,24.05,282.86Zm58.2-99c-.64-1.38-.18-3.28-.18-5L84,179c.84,1.58,1.67,3.16,3.22,6.1C84.81,184.55,82.61,184.64,82.25,183.87Zm6.46,13.67c.81-.87,1.57-1.67,2.62-2.78l4,5.14C91.08,203.72,90.4,199.55,88.71,197.54ZM98.77,213l2.68-2.95,3.85,5.06C102.23,217.77,102.23,217.77,98.77,213Zm10.89,22.11c-1.08-.82-3.08-1.66-3.07-2.45,0-1.89,1-3.75,1.65-5.62l1.22.21q.6,3.34,1.18,6.68Z"/><path class="cls-1" d="M77.14,169c-1.46-3.65-3.56-6.83-1.67-11.45,1-2.48-1.4-6.21-1.75-9.44-.3-2.83.46-5.78.15-8.61-.38-3.63-1.67-7.18-2-10.81-.2-2.45.7-5,1-7.48.13-1.13.41-2.58-.13-3.38-3.16-4.64-2.35-9.53-1.38-14.52A7.72,7.72,0,0,0,71,99.91c-1.1-3.81-2.44-7.57-3.36-11.42-.2-.88,1-2,1.39-3.12C70,83,70.78,80.6,71.69,78.23c.37-1,.59-2.27,1.33-2.77,3.41-2.34,5.47-7.81,11.3-4.93.9.44,2.91-.19,3.74-1,4.7-4.64,9.55-3.36,14.66-.91a5,5,0,0,0,3.86.2c5.85-2.88,11.07-2.31,16,2.07.67.61,2.1,1.16,2.76.85,4.43-2.1,7.52,1.12,10.94,2.69,1.17.53,1.79,2.24,2.72,3.36s2,3.15,2.85,3.06c6.54-.67,7.48,5.84,11.74,8.26-2,3.73-1.61,6,1.19,9.55,2.13,2.66.46,8.38.44,12.74,0,1.79-.32,3.61-.15,5.38.47,4.74,2.69,9.51-1.06,14a4.43,4.43,0,0,0-.38,3.79c2.86,6.82,2.7,8.6-1.7,15.18a3.59,3.59,0,0,0-.5,2.82c2.17,5.7,2,10.81-2.85,15.22-.65.59-.75,2.35-.44,3.36,1.73,5.5,1.41,10.44-3.05,14.66-.58.55-.64,1.87-.58,2.82.18,3.28.8,6.57.69,9.84,0,1.48-1.43,2.91-2.14,4.4-.61,1.27-1.86,2.82-1.55,3.85,1.72,5.58,2,10.7-2.61,15.17-.51.5-.46,2-.18,2.82,1.56,4.79,4,9.41,1.69,14.71-.28.66.92,1.89,1.31,2.91,1.55,4.16,3,8.36,4.62,12.5a6.52,6.52,0,0,0,1.62,2.28c.58.55,1.63.67,2.1,1.28,5.54,7.14,12.75,8,20.77,5.48a10.35,10.35,0,0,0,4.57-2.8c2.26-2.64,4.1-5.65,6.29-8.77l5.33,1.45c-.44-2-.85-3.3-1-4.67a31.71,31.71,0,0,1-.2-4.57c.1-4.92,4.74-9.41,0-15-1.81-2.16.06-7.35.07-11.15,0-1.38-.11-3.11-.9-4.07-3.07-3.7-4.11-9.9-2.31-14.17.52-1.24.74-3.84.21-4.12-5.15-2.7-1.42-6.68-1.57-9.53-3.65-5.09-8-5.42-12.52-2.85.49-3.5.91-6.8,1.42-10.08.76-4.83-3.44-5.68-5.71-7.2,2.74-2.17,5.42-4.33,8.15-6.44,3.89-3,1.44-6.5.68-9.36L187.19,154c1.42-3.59,2.31-5.82,3-7.53,2.06,2.8,3.53,6.6,6.22,7.93s6.7.3,9.13.3c-.18,2.72-1.35,6.5-.4,9.63s4,5.36,5.79,7.52c-1.87,1.57-5.17,3.33-6.89,6.08s-1.73,6.35-2.51,9.66c-2.57-2.24-7-4.29-10-.71-2.68,3.13-4.08,7.83-4.72,12-.38,2.54,2.14,5.39,2.64,8.23.37,2-.58,4.26-.67,6.42-.06,1.28-.07,3.05.69,3.79,4.58,4.48,4.6,9.33,2.14,14.82-.49,1.1,0,3.08.76,4.22a10.45,10.45,0,0,1-2.35,14,10.66,10.66,0,0,0-2.31,3.72c-1.22,2.52-1.89,5.42-3.55,7.58-1.51,2-4,3.2-6.1,4.71-1.2.87-2.68,1.45-3.67,2.49-3.23,3.4-10,4.38-13.91,2-1.22-.74-2.94-1.59-4.15-1.28-5.18,1.34-7.45-3-10.82-5.12-.41-.27-1.08-.73-1-1,1.12-8-8.72-10.5-8.42-18.58,2.4-2,2.18-4.08-.92-6.89-1.54-1.4-1.28-4.67-2.08-7-.9-2.68-.71-4.63,2.09-6.15.73-.39,1.21-3.08.68-3.63-3.36-3.51-.72-7.24-.65-10.82,0-1.18,1.34-2.31,1.93-3.54s1.63-2.81,1.66-4.24c.08-3.52-1.87-8.49-.2-10.28,4.9-5.28.56-11.27,2.72-16.4.8-1.92,2.24-3.56,3.16-5.43a9.11,9.11,0,0,0,.92-3.72c.07-3.81-.17-7.63,0-11.44,0-.89,1.25-1.69,1.78-2.61.64-1.09,1.87-2.58,1.55-3.36-2.36-5.75-1.61-10.91,2-15.86a3.2,3.2,0,0,0-.09-2.84c-3-5.1-4.07-10,.23-15a3.35,3.35,0,0,0-.09-3.25c-4.54-4.07-1.56-9-1.8-13.5a8.27,8.27,0,0,0-.92-4.17c-2.71-3.88-8.07-5.78-8.48-11.47,0-.5-1.26-1.29-1.95-1.31-5.53-.22-10.21-1.9-13.42-6.78a3,3,0,0,0-2.74-.83c-5.56,2.88-10.54,1.07-15.58-1.4a3.39,3.39,0,0,0-2.89.11c-4.54,3.26-9.21,2.07-14,.94a5.19,5.19,0,0,0-3.72,1.23c-3.14,2.45-6.1,5.13-9.1,7.75-.61.53-1.62,1.23-1.56,1.77.64,6.41,1.5,12.79,2.22,19.19.44,3.94.83,7.89,1.1,11.85.16,2.24.05,4.51.05,6.76,0,4.31-.08,8.61,0,12.92,0,2,.33,4,.57,6.69l-3.86,3c.63,1.88-.8,5.75,4.39,4.6l.3-4.74,1.17.07c-.37,3-.94,6-1,9-.06,1.85.59,3.73,1,6.06l-3.88,3.31c.16,1.69.34,3.64.52,5.59Zm114,8.18c-1.67-7.66-5.45-10.65-12.85-10.66.69,3.05.43,7.18,2.2,8.44C183,176.71,187,176.41,191.11,177.13Zm-37.11-57-4.53-.7.41,8.21,4.27-2.26c0-.88,0-1.86,0-2.83S154.05,121,154,120.17Zm-8.13,61.54c1.56-5.71,1.56-5.71-2.37-7.5L142.31,181Zm7.06-36.33c.38-2.54.7-4.66,1-6.79-5.52-.74-4.35,3.07-4.71,5.93Zm-3-44.16v8l1.43.54c1.2-2.48,2.39-5,3.73-7.74Zm-13,109.65c-.34,2.83-2.34,6.2,2.82,7.07.38-2.4.76-4.78,1.12-7.07Zm12.82-47.24c.34-2.25.68-4.48,1-6.61l-3.56-.43C146.32,159.49,144.64,162.6,149.73,163.63ZM92.43,69.1c-.08,6.22,4,2.77,6.19,3.69-.14-1.49-.25-2.54-.36-3.69Zm41.65,10.72c2.17-5.11-1.87-5.16-4.49-6.45L128.17,77Zm11.83,4.27L143,86.53l4.29,5.21L149.87,88ZM188,210c-.17-3.31.58-6.85-4.66-6.13.37,2.24.74,4.44,1.06,6.38Zm-.69,36.17,1.06,1.14c1.1-.91,3-1.73,3.1-2.76.17-1.43-1-3-1.55-4.54l-1.46.52Zm-49.62,1L140.3,252l4.27-.77-2.42-5Zm46.34,8.55-2-.56c-.59,2.42-5.72,3.69-.38,8.6ZM111.32,67.8c-.13,2.75-.18,3.92-.24,5.37l6.34.48.63-1.55ZM73.14,88.65c-6.21.61-2.86,4.09-3,6.53l4.1-1C73.85,92.37,73.52,90.66,73.14,88.65Zm69.73,110.54c1.1-3.23,2-6.07-2.57-6.76-.33,2.1-.65,4.2-1,6.53Zm45.18,21.74L186.54,222c.31,2.17.62,4.34.87,6.11h4.66ZM81.87,75.38l-.38-1.63c-1.49.27-3.37.1-4.35,1-.78.68-.45,2.62-.61,4l1.37.15Zm-9.45,31.94v6.14l1.44.6c1-2.07,2.09-4.15,3.52-7Zm.88,24.41c5.66.14,3.93-3.18,3.7-6.06l-3.7.39ZM173.44,180l1.68-.4-2-10.26-2.08.48Q172.23,174.86,173.44,180Zm-24.2,80.52-1.46.55c.86,2,1.72,3.93,2.76,6.29C154.89,263,151.24,262,149.24,260.47Z"/></g></g></svg>